<svg xmlns="http://www.w3.org/2000/svg" version="1.1" xmlns:xlink="http://www.w3.org/1999/xlink" xmlns:svgjs="http://svgjs.dev/svgjs" width="1500" height="1500" viewBox="0 0 1500 1500"><g transform="matrix(1,0,0,1,-0.323615160350073,-0.3236151603499593)"><svg viewBox="0 0 343 343" data-background-color="#000000" preserveAspectRatio="xMidYMid meet" height="1500" width="1500" xmlns="http://www.w3.org/2000/svg" xmlns:xlink="http://www.w3.org/1999/xlink"><g id="tight-bounds" transform="matrix(1,0,0,1,0.0740000000000407,0.07400000000001228)"><svg viewBox="0 0 342.85155851775386 342.85155851775386" height="342.85155851775386" width="342.85155851775386"><rect width="342.852" height="342.852" fill="url(#4b6e2683-a4b6-49e0-a915-1a4e0e03523c)" mask="url(#33151032-100e-4962-ae7d-db1daacc86e3)" data-fill-palette-color="tertiary"></rect><g><svg></svg></g><g><svg viewBox="0 0 342.85155851775386 342.85155851775386" height="342.85155851775386" width="342.85155851775386"><g><path d="M0 171.426c0-94.676 76.75-171.426 171.426-171.426 94.676 0 171.426 76.75 171.426 171.426 0 94.676-76.75 171.426-171.426 171.426-94.676 0-171.426-76.75-171.426-171.426zM171.426 336.903c91.39 0 165.477-74.086 165.477-165.477 0-91.39-74.086-165.477-165.477-165.477-91.39 0-165.477 74.086-165.477 165.477 0 91.39 74.086 165.477 165.477 165.477z" data-fill-palette-color="tertiary" fill="url(#4b6e2683-a4b6-49e0-a915-1a4e0e03523c)" stroke="transparent"></path><ellipse rx="164.56874808852186" ry="164.56874808852186" cx="171.42577925887693" cy="171.42577925887693" fill="url(#4b6e2683-a4b6-49e0-a915-1a4e0e03523c)" stroke="transparent" stroke-width="0" fill-opacity="1" data-fill-palette-color="tertiary"></ellipse></g><g transform="matrix(1,0,0,1,64.84655864529837,138.4420178098768)"><svg viewBox="0 0 213.1584412271571 65.96752289800023" height="65.96752289800023" width="213.1584412271571"><g><svg viewBox="0 0 213.1584412271571 65.96752289800023" height="65.96752289800023" width="213.1584412271571"><g><svg viewBox="0 0 213.1584412271571 65.96752289800023" height="65.96752289800023" width="213.1584412271571"><g><svg viewBox="0 0 213.1584412271571 65.96752289800023" height="65.96752289800023" width="213.1584412271571"><g id="textblocktransform"><svg viewBox="0 0 213.1584412271571 65.96752289800023" height="65.96752289800023" width="213.1584412271571" id="textblock"><g><svg viewBox="0 0 213.1584412271571 65.96752289800023" height="65.96752289800023" width="213.1584412271571"><g transform="matrix(1,0,0,1,0,0)"><svg width="213.1584412271571" viewBox="2.75 -35.5 150.89 46.7" height="65.96752289800023" data-palette-color="#000000"><path d="M32-34L32-25.15 29.05-25.15 27.75-30.4 10.75-30.4 10.75-18.9 20.7-18.9 21.45-22.75 24.2-22.75 24.2-11.45 21.45-11.45 20.7-15.3 10.75-15.3 10.75-3.6 27.75-3.6 29.05-9.35 32-9.35 32 0 2.75 0 2.75-2.75 6.45-4.25 6.45-29.7 2.75-31.15 2.75-34 32-34ZM50.85-14.2Q54.3-13.55 56-12.75 57.7-11.95 58.3-10.68 58.9-9.4 58.9-7.1L58.9-7.1Q58.9-4.25 57.87-2.58 56.85-0.9 54.27-0.1 51.7 0.7 47 0.7L47 0.7Q44.6 0.7 42.35 0.48 40.1 0.25 36.9-0.3L36.9-0.3 36.9-7.5 39.9-7.5 41.35-3.25Q44-2.8 47.15-2.8L47.15-2.8Q50.25-2.8 51.8-3.13 53.35-3.45 53.92-4.23 54.5-5 54.5-6.5L54.5-6.5Q54.5-7.85 53.95-8.53 53.4-9.2 52.32-9.5 51.25-9.8 48.6-10.2L48.6-10.2 45.2-10.8Q41.65-11.45 39.85-12.25 38.05-13.05 37.32-14.43 36.6-15.8 36.6-18.3L36.6-18.3Q36.6-21.05 37.57-22.65 38.55-24.25 40.95-25.03 43.35-25.8 47.7-25.8L47.7-25.8Q52.05-25.8 58-24.8L58-24.8 58-17.85 55.1-17.85 53.75-21.75Q50.45-22.3 47.5-22.3L47.5-22.3Q44.9-22.3 43.5-21.95 42.1-21.6 41.55-20.85 41-20.1 41-18.7L41-18.7Q41-17.3 41.6-16.63 42.2-15.95 43.55-15.58 44.9-15.2 48.25-14.65L48.25-14.65Q49.5-14.5 50.85-14.2L50.85-14.2ZM88.9-4.25L92.3-2.75 92.3 0 84.7 0 84.7-16.55Q84.7-19.5 83.27-20.83 81.85-22.15 79.1-22.15L79.1-22.15Q77.35-22.15 75.67-21.7 74-21.25 70.8-20.1L70.8-20.1 70.8-4.25 74.2-2.75 74.2 0 63.2 0 63.2-2.75 66.6-4.25 66.6-31.25 63.2-32.65 63.2-35.5 70.8-35.5 70.8-23.35Q73.35-24.65 75.67-25.23 78-25.8 80.45-25.8L80.45-25.8Q83.6-25.8 85.45-24.83 87.3-23.85 88.1-21.73 88.9-19.6 88.9-16L88.9-16 88.9-4.25ZM112.99-25.1L124.89-25.1 124.89-22.3 120.79-20.9 109.74 3.75Q108.49 6.6 106.97 8.18 105.44 9.75 103.12 10.48 100.79 11.2 97.09 11.2L97.09 11.2 96.09 11.2 96.09 7.5Q97.99 7.65 99.74 7.65L99.74 7.65Q101.64 7.65 102.77 7.15 103.89 6.65 105.02 5.08 106.14 3.5 107.74 0.05L107.74 0.05 98.14-20.9 94.04-22.3 94.04-25.1 106.79-25.1 106.79-22.3 102.74-20.95 109.94-4.8 117.04-20.95 112.99-22.3 112.99-25.1ZM150.24-4.25L153.64-2.75 153.64 0 147.69 0 146.39-3.6Q144.34-1.5 141.97-0.5 139.59 0.5 136.64 0.5L136.64 0.5Q131.84 0.5 129.54-1.35 127.24-3.2 127.24-7.35L127.24-7.35Q127.24-11.75 129.99-13.73 132.74-15.7 138.84-15.7L138.84-15.7Q141.24-15.7 143.07-15.28 144.89-14.85 146.04-14.25L146.04-14.25 146.04-16.2Q146.04-18.5 145.47-19.78 144.89-21.05 143.42-21.63 141.94-22.2 139.14-22.2L139.14-22.2Q134.09-22.2 128.64-21L128.64-21 128.64-24.6Q134.19-25.8 139.24-25.8L139.24-25.8Q143.94-25.8 146.32-24.85 148.69-23.9 149.47-22.1 150.24-20.3 150.24-17.1L150.24-17.1 150.24-4.25ZM131.64-7.65Q131.64-5.2 132.87-4.15 134.09-3.1 137.34-3.1L137.34-3.1Q139.74-3.1 141.97-3.98 144.19-4.85 146.04-6.4L146.04-6.4 146.04-11.4Q143.24-12.2 139.29-12.2L139.29-12.2Q134.94-12.2 133.29-11.1 131.64-10 131.64-7.65L131.64-7.65Z" opacity="1" transform="matrix(1,0,0,1,0,0)" fill="#000000" class="wordmark-text-0" data-fill-palette-color="quaternary" id="text-0"></path></svg></g></svg></g></svg></g></svg></g><g></g></svg></g></svg></g></svg></g></svg></g><defs></defs><mask id="33151032-100e-4962-ae7d-db1daacc86e3"><g id="SvgjsG1573"><svg viewBox="0 0 342.85155851775386 342.85155851775386" height="342.85155851775386" width="342.85155851775386"><g><svg></svg></g><g><svg viewBox="0 0 342.85155851775386 342.85155851775386" height="342.85155851775386" width="342.85155851775386"><g><path d="M0 171.426c0-94.676 76.75-171.426 171.426-171.426 94.676 0 171.426 76.75 171.426 171.426 0 94.676-76.75 171.426-171.426 171.426-94.676 0-171.426-76.75-171.426-171.426zM171.426 336.903c91.39 0 165.477-74.086 165.477-165.477 0-91.39-74.086-165.477-165.477-165.477-91.39 0-165.477 74.086-165.477 165.477 0 91.39 74.086 165.477 165.477 165.477z" fill="white" stroke="transparent"></path><ellipse rx="164.56874808852186" ry="164.56874808852186" cx="171.42577925887693" cy="171.42577925887693" fill="white" stroke="transparent" stroke-width="0" fill-opacity="1"></ellipse></g><g transform="matrix(1,0,0,1,64.84655864529837,138.4420178098768)"><svg viewBox="0 0 213.1584412271571 65.96752289800023" height="65.96752289800023" width="213.1584412271571"><g><svg viewBox="0 0 213.1584412271571 65.96752289800023" height="65.96752289800023" width="213.1584412271571"><g><svg viewBox="0 0 213.1584412271571 65.96752289800023" height="65.96752289800023" width="213.1584412271571"><g><svg viewBox="0 0 213.1584412271571 65.96752289800023" height="65.96752289800023" width="213.1584412271571"><g id="SvgjsG1572"><svg viewBox="0 0 213.1584412271571 65.96752289800023" height="65.96752289800023" width="213.1584412271571" id="SvgjsSvg1571"><g><svg viewBox="0 0 213.1584412271571 65.96752289800023" height="65.96752289800023" width="213.1584412271571"><g transform="matrix(1,0,0,1,0,0)"><svg width="213.1584412271571" viewBox="2.75 -35.5 150.89 46.7" height="65.96752289800023" data-palette-color="#000000"><path d="M32-34L32-25.15 29.05-25.15 27.75-30.4 10.75-30.4 10.75-18.9 20.7-18.9 21.45-22.75 24.2-22.75 24.2-11.45 21.45-11.45 20.7-15.3 10.75-15.3 10.75-3.6 27.75-3.6 29.05-9.35 32-9.35 32 0 2.75 0 2.75-2.75 6.45-4.25 6.45-29.7 2.75-31.15 2.75-34 32-34ZM50.85-14.2Q54.3-13.55 56-12.75 57.7-11.95 58.3-10.68 58.9-9.4 58.9-7.1L58.9-7.1Q58.9-4.25 57.87-2.58 56.85-0.9 54.27-0.1 51.7 0.7 47 0.7L47 0.7Q44.6 0.7 42.35 0.48 40.1 0.25 36.9-0.3L36.9-0.3 36.9-7.5 39.9-7.5 41.35-3.25Q44-2.8 47.15-2.8L47.15-2.8Q50.25-2.8 51.8-3.13 53.35-3.45 53.92-4.23 54.5-5 54.5-6.5L54.5-6.5Q54.5-7.85 53.95-8.53 53.4-9.2 52.32-9.5 51.25-9.8 48.6-10.2L48.6-10.2 45.2-10.8Q41.65-11.45 39.85-12.25 38.05-13.05 37.32-14.43 36.6-15.8 36.6-18.3L36.6-18.3Q36.6-21.05 37.57-22.65 38.55-24.25 40.95-25.03 43.35-25.8 47.7-25.8L47.7-25.8Q52.05-25.8 58-24.8L58-24.8 58-17.85 55.1-17.85 53.75-21.75Q50.45-22.3 47.5-22.3L47.5-22.3Q44.9-22.3 43.5-21.95 42.1-21.6 41.55-20.85 41-20.1 41-18.7L41-18.7Q41-17.3 41.6-16.63 42.2-15.95 43.55-15.58 44.9-15.2 48.25-14.65L48.25-14.65Q49.5-14.5 50.85-14.2L50.85-14.2ZM88.9-4.25L92.3-2.75 92.3 0 84.7 0 84.7-16.55Q84.7-19.5 83.27-20.83 81.85-22.15 79.1-22.15L79.1-22.15Q77.35-22.15 75.67-21.7 74-21.25 70.8-20.1L70.8-20.1 70.8-4.25 74.2-2.75 74.2 0 63.2 0 63.2-2.75 66.6-4.25 66.6-31.25 63.2-32.65 63.2-35.5 70.8-35.5 70.8-23.35Q73.35-24.65 75.67-25.23 78-25.8 80.45-25.8L80.45-25.8Q83.6-25.8 85.45-24.83 87.3-23.85 88.1-21.73 88.9-19.6 88.9-16L88.9-16 88.9-4.25ZM112.99-25.1L124.89-25.1 124.89-22.3 120.79-20.9 109.74 3.75Q108.49 6.6 106.97 8.18 105.44 9.75 103.12 10.48 100.79 11.2 97.09 11.2L97.09 11.2 96.09 11.2 96.09 7.5Q97.99 7.65 99.74 7.65L99.74 7.65Q101.64 7.65 102.77 7.15 103.89 6.65 105.02 5.08 106.14 3.5 107.74 0.05L107.74 0.05 98.14-20.9 94.04-22.3 94.04-25.1 106.79-25.1 106.79-22.3 102.74-20.95 109.94-4.8 117.04-20.95 112.99-22.3 112.99-25.1ZM150.24-4.25L153.64-2.75 153.64 0 147.69 0 146.39-3.6Q144.34-1.5 141.97-0.5 139.59 0.5 136.64 0.5L136.64 0.5Q131.84 0.5 129.54-1.35 127.24-3.2 127.24-7.35L127.24-7.35Q127.24-11.75 129.99-13.73 132.74-15.7 138.84-15.7L138.84-15.7Q141.24-15.7 143.07-15.28 144.89-14.85 146.04-14.25L146.04-14.25 146.04-16.2Q146.04-18.5 145.47-19.78 144.89-21.05 143.42-21.63 141.94-22.2 139.14-22.2L139.14-22.2Q134.09-22.2 128.64-21L128.64-21 128.64-24.6Q134.19-25.8 139.24-25.8L139.24-25.8Q143.94-25.8 146.32-24.85 148.69-23.9 149.47-22.1 150.24-20.3 150.24-17.1L150.24-17.1 150.24-4.25ZM131.64-7.65Q131.64-5.2 132.87-4.15 134.09-3.1 137.34-3.1L137.34-3.1Q139.74-3.1 141.97-3.98 144.19-4.85 146.04-6.4L146.04-6.4 146.04-11.4Q143.24-12.2 139.29-12.2L139.29-12.2Q134.94-12.2 133.29-11.1 131.64-10 131.64-7.65L131.64-7.65Z" opacity="1" transform="matrix(1,0,0,1,0,0)" fill="black" class="wordmark-text-0" id="SvgjsPath1570"></path></svg></g></svg></g></svg></g></svg></g><g></g></svg></g></svg></g></svg></g></svg></g><defs><mask></mask></defs></svg><rect width="342.85155851775386" height="342.85155851775386" fill="black" stroke="none" visibility="hidden"></rect></g></mask><linearGradient x1="0" x2="1" y1="0.578" y2="0.595" id="4b6e2683-a4b6-49e0-a915-1a4e0e03523c"><stop stop-color="#6ee2f5" offset="0"></stop><stop stop-color="#6454f0" offset="1"></stop></linearGradient></svg><rect width="342.85155851775386" height="342.85155851775386" fill="none" stroke="none" visibility="hidden"></rect></g></svg></g></svg>